<svg xmlns="http://www.w3.org/2000/svg" width="320" height="280" viewBox="0 0 320 280">
  <title>SCS — south-facing slope (alpha_soil = π/4)</title>
  <defs>
    <marker id="arr-or" markerWidth="8" markerHeight="6" refX="7" refY="3" orient="auto" markerUnits="userSpaceOnUse">
  <polygon points="0 0,8 3,0 6" fill="#ca6f1e"/>
</marker>
    <marker id="arr-bl" markerWidth="8" markerHeight="6" refX="7" refY="3" orient="auto" markerUnits="userSpaceOnUse">
  <polygon points="0 0,8 3,0 6" fill="#2471a3"/>
</marker>
    <marker id="arr-gy" markerWidth="8" markerHeight="6" refX="7" refY="3" orient="auto" markerUnits="userSpaceOnUse">
  <polygon points="0 0,8 3,0 6" fill="#7f8c8d"/>
</marker>
    <marker id="arr-gr" markerWidth="8" markerHeight="6" refX="7" refY="3" orient="auto" markerUnits="userSpaceOnUse">
  <polygon points="0 0,8 3,0 6" fill="#1e8449"/>
</marker>
    <marker id="arr-pu" markerWidth="8" markerHeight="6" refX="7" refY="3" orient="auto" markerUnits="userSpaceOnUse">
  <polygon points="0 0,8 3,0 6" fill="#7d3c98"/>
</marker>
    <marker id="arr-bk" markerWidth="8" markerHeight="6" refX="7" refY="3" orient="auto" markerUnits="userSpaceOnUse">
  <polygon points="0 0,8 3,0 6" fill="#222222"/>
</marker>
    <marker id="arr-rd" markerWidth="8" markerHeight="6" refX="7" refY="3" orient="auto" markerUnits="userSpaceOnUse">
  <polygon points="0 0,8 3,0 6" fill="#c0392b"/>
</marker>
  </defs>
  <polygon points="66.1,271.0 55.8,220.7 202.7,76.2 213.0,126.5" fill="#27ae60" fill-opacity="0.2" stroke="#27ae60" stroke-width="0.8" stroke-opacity="0.5"/>
  <line x1="134.4" y1="173.6" x2="134.4" y2="56.5" stroke="#2471a3" stroke-width="1.8" stroke-dasharray="5,3" marker-end="url(#arr-bl)"/>
  <text x="138.4" y="39.5" font-size="13" font-family="serif" font-style="italic" fill="#2471a3">Z_geo</text>
  <line x1="134.4" y1="173.6" x2="62.8" y2="244.0" stroke="#1e8449" stroke-width="1.8" marker-end="url(#arr-gr)"/>
  <text x="60.4" y="262.4" font-size="13" font-family="serif" font-style="italic" fill="#1e8449">X_scene</text>
  <line x1="134.4" y1="173.6" x2="62.9" y2="105.0" stroke="#1e8449" stroke-width="1.8" marker-end="url(#arr-gr)"/>
  <text x="60.4" y="88.7" font-size="13" font-family="serif" font-style="italic" fill="#1e8449">Z_scene</text>
  <line x1="134.4" y1="173.6" x2="135.2" y2="177.4" stroke="#1e8449" stroke-width="1.8" marker-end="url(#arr-gr)"/>
  <text x="141.0" y="190.2" font-size="13" font-family="serif" font-style="italic" fill="#1e8449">Y_scene</text>
  <polyline points="134.4,125.7 133.4,125.7 132.5,125.7 131.5,125.8 130.5,125.9 129.6,126.0 128.6,126.1 127.6,126.2 126.7,126.4 125.7,126.5 124.8,126.7 123.8,126.9 122.9,127.1 121.9,127.4 121.0,127.6 120.1,127.9 119.2,128.2 118.2,128.5 117.3,128.8 116.4,129.2 115.5,129.5 114.6,129.9 113.7,130.3 112.9,130.7 112.0,131.2 111.1,131.6 110.3,132.1 109.5,132.6 108.6,133.0 107.8,133.6 107.0,134.1 106.2,134.6 105.4,135.2 104.6,135.7 103.9,136.3 103.1,136.9 102.4,137.5 101.6,138.2 100.9,138.8 100.2,139.5 99.5,140.1" fill="none" stroke="#ca6f1e" stroke-width="1.4"/>
  <text x="121.5" y="127.5" font-size="12" font-family="serif" font-style="italic" fill="#ca6f1e">α_soil</text>
  <line x1="251.3" y1="172.2" x2="17.5" y2="175.0" stroke="#7f8c8d" stroke-width="0.9" stroke-dasharray="4,3" />
  <circle cx="134.4" cy="173.6" r="3.0" fill="#222222"/>
  <text x="8.0" y="272.0" font-size="10" font-family="serif" text-anchor="start" fill="#7f8c8d">alpha_soil = π/4, beta_soil = π  (south-facing 45° slope)</text>
</svg>
