<svg xmlns="http://www.w3.org/2000/svg" width="480" height="240" viewBox="0 0 480 240">
  <title>Scene Coordinate System — flat surface</title>
  <defs>
    <marker id="arr-or" markerWidth="8" markerHeight="6" refX="7" refY="3" orient="auto" markerUnits="userSpaceOnUse">
  <polygon points="0 0,8 3,0 6" fill="#ca6f1e"/>
</marker>
    <marker id="arr-bl" markerWidth="8" markerHeight="6" refX="7" refY="3" orient="auto" markerUnits="userSpaceOnUse">
  <polygon points="0 0,8 3,0 6" fill="#2471a3"/>
</marker>
    <marker id="arr-gy" markerWidth="8" markerHeight="6" refX="7" refY="3" orient="auto" markerUnits="userSpaceOnUse">
  <polygon points="0 0,8 3,0 6" fill="#7f8c8d"/>
</marker>
    <marker id="arr-gr" markerWidth="8" markerHeight="6" refX="7" refY="3" orient="auto" markerUnits="userSpaceOnUse">
  <polygon points="0 0,8 3,0 6" fill="#1e8449"/>
</marker>
    <marker id="arr-pu" markerWidth="8" markerHeight="6" refX="7" refY="3" orient="auto" markerUnits="userSpaceOnUse">
  <polygon points="0 0,8 3,0 6" fill="#7d3c98"/>
</marker>
    <marker id="arr-bk" markerWidth="8" markerHeight="6" refX="7" refY="3" orient="auto" markerUnits="userSpaceOnUse">
  <polygon points="0 0,8 3,0 6" fill="#222222"/>
</marker>
    <marker id="arr-rd" markerWidth="8" markerHeight="6" refX="7" refY="3" orient="auto" markerUnits="userSpaceOnUse">
  <polygon points="0 0,8 3,0 6" fill="#c0392b"/>
</marker>
  </defs>
  <polygon points="120.0,66.2 248.7,129.6 120.0,193.0 -8.7,129.6" fill="#27ae60" fill-opacity="0.15" stroke="#27ae60" stroke-width="0.8" stroke-opacity="0.5"/>
  <line x1="120.0" y1="129.6" x2="49.9" y2="164.1" stroke="#1e8449" stroke-width="1.8" marker-end="url(#arr-gr)"/>
  <text x="45.9" y="182.1" font-size="13" font-family="serif" font-style="italic" fill="#1e8449">X_scene</text>
  <line x1="120.0" y1="129.6" x2="190.1" y2="164.1" stroke="#1e8449" stroke-width="1.8" marker-end="url(#arr-gr)"/>
  <text x="202.1" y="163.1" font-size="13" font-family="serif" font-style="italic" fill="#1e8449">Y_scene</text>
  <line x1="120.0" y1="129.6" x2="120.0" y2="42.4" stroke="#1e8449" stroke-width="1.8" marker-end="url(#arr-gr)"/>
  <text x="124.0" y="25.4" font-size="13" font-family="serif" font-style="italic" fill="#1e8449">Z_scene</text>
  <text x="43.9" y="190.1" font-size="10" font-family="serif" text-anchor="start" fill="#7f8c8d">(South)</text>
  <text x="200.1" y="166.1" font-size="10" font-family="serif" text-anchor="start" fill="#7f8c8d">(East)</text>
  <circle cx="120.0" cy="129.6" r="3.0" fill="#222222"/>
  <text x="10.0" y="18.0" font-size="12" font-family="serif" text-anchor="start" fill="#222222">α = π  (default, X → South)</text>
  <line x1="240.0" y1="4" x2="240.0" y2="236" stroke="#7f8c8d" stroke-width="0.6" stroke-dasharray="3,3"/>
  <polygon points="231.3,129.6 360.0,66.2 488.7,129.6 360.0,193.0" fill="#27ae60" fill-opacity="0.15" stroke="#27ae60" stroke-width="0.8" stroke-opacity="0.5"/>
  <line x1="360.0" y1="129.6" x2="430.1" y2="164.1" stroke="#1e8449" stroke-width="1.8" marker-end="url(#arr-gr)"/>
  <text x="442.1" y="182.1" font-size="13" font-family="serif" font-style="italic" fill="#1e8449">X_scene</text>
  <line x1="360.0" y1="129.6" x2="430.1" y2="95.1" stroke="#1e8449" stroke-width="1.8" marker-end="url(#arr-gr)"/>
  <text x="373.1" y="86.1" font-size="13" font-family="serif" font-style="italic" fill="#1e8449">Y_scene</text>
  <line x1="360.0" y1="129.6" x2="360.0" y2="42.4" stroke="#1e8449" stroke-width="1.8" marker-end="url(#arr-gr)"/>
  <text x="364.0" y="25.4" font-size="13" font-family="serif" font-style="italic" fill="#1e8449">Z_scene</text>
  <text x="440.1" y="190.1" font-size="10" font-family="serif" text-anchor="start" fill="#7f8c8d">(East)</text>
  <text x="398.1" y="77.1" font-size="10" font-family="serif" text-anchor="start" fill="#7f8c8d">(North)</text>
  <circle cx="360.0" cy="129.6" r="3.0" fill="#222222"/>
  <text x="250.0" y="18.0" font-size="12" font-family="serif" text-anchor="start" fill="#222222">α = π/2  (X → East, Y → North)</text>
</svg>
