<svg xmlns="http://www.w3.org/2000/svg" width="300" height="300" viewBox="0 0 300 300">
  <title>Solar azimuth angle Phi</title>
  <defs>
    <marker id="arr-or" markerWidth="8" markerHeight="6" refX="7" refY="3" orient="auto" markerUnits="userSpaceOnUse">
  <polygon points="0 0,8 3,0 6" fill="#ca6f1e"/>
</marker>
    <marker id="arr-bl" markerWidth="8" markerHeight="6" refX="7" refY="3" orient="auto" markerUnits="userSpaceOnUse">
  <polygon points="0 0,8 3,0 6" fill="#2471a3"/>
</marker>
    <marker id="arr-gy" markerWidth="8" markerHeight="6" refX="7" refY="3" orient="auto" markerUnits="userSpaceOnUse">
  <polygon points="0 0,8 3,0 6" fill="#7f8c8d"/>
</marker>
    <marker id="arr-gr" markerWidth="8" markerHeight="6" refX="7" refY="3" orient="auto" markerUnits="userSpaceOnUse">
  <polygon points="0 0,8 3,0 6" fill="#1e8449"/>
</marker>
    <marker id="arr-pu" markerWidth="8" markerHeight="6" refX="7" refY="3" orient="auto" markerUnits="userSpaceOnUse">
  <polygon points="0 0,8 3,0 6" fill="#7d3c98"/>
</marker>
    <marker id="arr-bk" markerWidth="8" markerHeight="6" refX="7" refY="3" orient="auto" markerUnits="userSpaceOnUse">
  <polygon points="0 0,8 3,0 6" fill="#222222"/>
</marker>
    <marker id="arr-rd" markerWidth="8" markerHeight="6" refX="7" refY="3" orient="auto" markerUnits="userSpaceOnUse">
  <polygon points="0 0,8 3,0 6" fill="#c0392b"/>
</marker>
  </defs>
  <polygon points="150.0,-11.9 315.5,150.0 150.0,311.9 -15.5,150.0" fill="#aaaaaa" fill-opacity="0.1" stroke="#27ae60" stroke-width="0.8" stroke-opacity="0.5"/>
  <line x1="150.0" y1="150.0" x2="218.9" y2="82.6" stroke="#7f8c8d" stroke-width="1.0" marker-end="url(#arr-gy)"/>
  <text x="221.4" y="66.3" font-size="13" font-family="serif" font-style="italic" fill="#7f8c8d">N</text>
  <line x1="150.0" y1="150.0" x2="81.1" y2="217.4" stroke="#7f8c8d" stroke-width="1.0" marker-end="url(#arr-gy)"/>
  <text x="78.6" y="235.7" font-size="13" font-family="serif" font-style="italic" fill="#7f8c8d">S</text>
  <line x1="150.0" y1="150.0" x2="218.9" y2="217.4" stroke="#7f8c8d" stroke-width="1.0" marker-end="url(#arr-gy)"/>
  <text x="231.4" y="227.7" font-size="13" font-family="serif" font-style="italic" fill="#7f8c8d">E</text>
  <line x1="150.0" y1="150.0" x2="81.1" y2="82.6" stroke="#7f8c8d" stroke-width="1.0" marker-end="url(#arr-gy)"/>
  <text x="58.6" y="80.3" font-size="13" font-family="serif" font-style="italic" fill="#7f8c8d">W</text>
  <line x1="150.0" y1="150.0" x2="150.0" y2="242.7" stroke="#ca6f1e" stroke-width="1.8" marker-end="url(#arr-or)"/>
  <text x="154.0" y="243.7" font-size="13" font-family="serif" font-style="italic" fill="#ca6f1e">sun (&#x3A6;=3&#x3C0;/4)</text>
  <polyline points="186.8,114.0 188.9,116.2 190.8,118.5 192.7,120.9 194.3,123.4 195.9,126.0 197.2,128.7 198.4,131.5 199.5,134.3 200.3,137.2 201.0,140.1 201.5,143.0 201.8,146.0 202.0,149.0 202.0,152.0 201.7,155.0 201.4,158.0 200.8,160.9 200.0,163.8 199.1,166.7 198.0,169.5 196.8,172.2 195.4,174.9 193.8,177.4 192.1,179.9 190.2,182.3 188.2,184.5 186.0,186.7 183.8,188.7 181.4,190.6 178.9,192.3 176.3,193.9 173.6,195.3 170.8,196.6 168.0,197.7 165.1,198.7 162.1,199.5 159.1,200.1 156.1,200.5 153.1,200.8 150.0,200.9" fill="none" stroke="#c0392b" stroke-width="1.4"/>
  <text x="204.0" y="165.5" font-size="12" font-family="serif" font-style="italic" fill="#c0392b">&#x3A6;</text>
  <circle cx="150.0" cy="150.0" r="3.0" fill="#222222"/>
  <text x="8.0" y="278.0" font-size="10" font-family="serif" text-anchor="start" fill="#7f8c8d">&#x3A6; measured clockwise from North</text>
  <text x="8.0" y="292.0" font-size="10" font-family="serif" text-anchor="start" fill="#7f8c8d">0=N, &#x3C0;/2=E, &#x3C0;=S, 3&#x3C0;/2=W</text>
</svg>
