<svg xmlns="http://www.w3.org/2000/svg" width="300" height="280" viewBox="0 0 300 280">
  <title>Solar zenith angle theta</title>
  <defs>
    <marker id="arr-or" markerWidth="8" markerHeight="6" refX="7" refY="3" orient="auto" markerUnits="userSpaceOnUse">
  <polygon points="0 0,8 3,0 6" fill="#ca6f1e"/>
</marker>
    <marker id="arr-bl" markerWidth="8" markerHeight="6" refX="7" refY="3" orient="auto" markerUnits="userSpaceOnUse">
  <polygon points="0 0,8 3,0 6" fill="#2471a3"/>
</marker>
    <marker id="arr-gy" markerWidth="8" markerHeight="6" refX="7" refY="3" orient="auto" markerUnits="userSpaceOnUse">
  <polygon points="0 0,8 3,0 6" fill="#7f8c8d"/>
</marker>
    <marker id="arr-gr" markerWidth="8" markerHeight="6" refX="7" refY="3" orient="auto" markerUnits="userSpaceOnUse">
  <polygon points="0 0,8 3,0 6" fill="#1e8449"/>
</marker>
    <marker id="arr-pu" markerWidth="8" markerHeight="6" refX="7" refY="3" orient="auto" markerUnits="userSpaceOnUse">
  <polygon points="0 0,8 3,0 6" fill="#7d3c98"/>
</marker>
    <marker id="arr-bk" markerWidth="8" markerHeight="6" refX="7" refY="3" orient="auto" markerUnits="userSpaceOnUse">
  <polygon points="0 0,8 3,0 6" fill="#222222"/>
</marker>
    <marker id="arr-rd" markerWidth="8" markerHeight="6" refX="7" refY="3" orient="auto" markerUnits="userSpaceOnUse">
  <polygon points="0 0,8 3,0 6" fill="#c0392b"/>
</marker>
  </defs>
  <line x1="206.9" y1="189.0" x2="-26.9" y2="191.8" stroke="#7f8c8d" stroke-width="0.9" stroke-dasharray="4,3" />
  <line x1="90.0" y1="190.4" x2="90.0" y2="73.3" stroke="#2471a3" stroke-width="1.8" marker-end="url(#arr-bl)"/>
  <text x="94.0" y="56.3" font-size="13" font-family="serif" font-style="italic" fill="#2471a3">Z_geo</text>
  <line x1="90.0" y1="190.4" x2="18.5" y2="121.8" stroke="#ca6f1e" stroke-width="1.8" marker-end="url(#arr-or)"/>
  <text x="18.0" y="115.5" font-size="13" font-family="serif" font-style="italic" fill="#ca6f1e">sun direction</text>
  <polyline points="90.0,137.4 88.9,137.4 87.9,137.5 86.8,137.6 85.7,137.6 84.7,137.7 83.6,137.9 82.5,138.0 81.5,138.2 80.4,138.4 79.4,138.6 78.3,138.8 77.3,139.0 76.2,139.3 75.2,139.6 74.2,139.9 73.1,140.2 72.1,140.6 71.1,140.9 70.1,141.3 69.1,141.7 68.1,142.1 67.2,142.6 66.2,143.0 65.2,143.5 64.3,144.0 63.4,144.5 62.4,145.0 61.5,145.6 60.6,146.1 59.7,146.7 58.8,147.3 57.9,147.9 57.1,148.6 56.2,149.2 55.4,149.9 54.6,150.5 53.8,151.2 53.0,151.9 52.2,152.7 51.4,153.4" fill="none" stroke="#c0392b" stroke-width="1.4"/>
  <text x="77.1" y="139.7" font-size="12" font-family="serif" font-style="italic" fill="#c0392b">&#x3B8;</text>
  <text x="11.4" y="103.1" font-size="16" font-family="serif" text-anchor="start" fill="#ca6f1e">&#x2600;</text>
  <circle cx="90.0" cy="190.4" r="3.0" fill="#222222"/>
  <text x="8.0" y="258.0" font-size="10" font-family="serif" text-anchor="start" fill="#7f8c8d">&#x3B8; = 0: sun overhead (zenith)</text>
  <text x="8.0" y="272.0" font-size="10" font-family="serif" text-anchor="start" fill="#7f8c8d">&#x3B8; = &#x3C0;/2: sun on horizon</text>
</svg>
