<svg xmlns="http://www.w3.org/2000/svg" width="540" height="220" viewBox="0 0 540 220">
  <title>Scene X-axis azimuth alpha</title>
  <defs>
    <marker id="arr-or" markerWidth="8" markerHeight="6" refX="7" refY="3" orient="auto" markerUnits="userSpaceOnUse">
  <polygon points="0 0,8 3,0 6" fill="#ca6f1e"/>
</marker>
    <marker id="arr-bl" markerWidth="8" markerHeight="6" refX="7" refY="3" orient="auto" markerUnits="userSpaceOnUse">
  <polygon points="0 0,8 3,0 6" fill="#2471a3"/>
</marker>
    <marker id="arr-gy" markerWidth="8" markerHeight="6" refX="7" refY="3" orient="auto" markerUnits="userSpaceOnUse">
  <polygon points="0 0,8 3,0 6" fill="#7f8c8d"/>
</marker>
    <marker id="arr-gr" markerWidth="8" markerHeight="6" refX="7" refY="3" orient="auto" markerUnits="userSpaceOnUse">
  <polygon points="0 0,8 3,0 6" fill="#1e8449"/>
</marker>
    <marker id="arr-pu" markerWidth="8" markerHeight="6" refX="7" refY="3" orient="auto" markerUnits="userSpaceOnUse">
  <polygon points="0 0,8 3,0 6" fill="#7d3c98"/>
</marker>
    <marker id="arr-bk" markerWidth="8" markerHeight="6" refX="7" refY="3" orient="auto" markerUnits="userSpaceOnUse">
  <polygon points="0 0,8 3,0 6" fill="#222222"/>
</marker>
    <marker id="arr-rd" markerWidth="8" markerHeight="6" refX="7" refY="3" orient="auto" markerUnits="userSpaceOnUse">
  <polygon points="0 0,8 3,0 6" fill="#c0392b"/>
</marker>
  </defs>
  <polygon points="90.0,64.4 209.5,123.2 90.0,182.0 -29.5,123.2" fill="#27ae60" fill-opacity="0.15" stroke="#27ae60" stroke-width="0.8" stroke-opacity="0.5"/>
  <line x1="90.0" y1="123.2" x2="24.5" y2="155.4" stroke="#1e8449" stroke-width="1.8" marker-end="url(#arr-gr)"/>
  <text x="20.5" y="171.4" font-size="13" font-family="serif" font-style="italic" fill="#1e8449">X</text>
  <line x1="90.0" y1="123.2" x2="155.5" y2="155.4" stroke="#1e8449" stroke-width="1.8" marker-end="url(#arr-gr)"/>
  <text x="149.5" y="153.4" font-size="13" font-family="serif" font-style="italic" fill="#1e8449">Y</text>
  <line x1="90.0" y1="123.2" x2="90.0" y2="64.3" stroke="#1e8449" stroke-width="1.8" marker-end="url(#arr-gr)"/>
  <text x="93.0" y="48.3" font-size="13" font-family="serif" font-style="italic" fill="#1e8449">Z</text>
  <line x1="90.0" y1="123.2" x2="140.6" y2="98.3" stroke="#7f8c8d" stroke-width="0.9" stroke-dasharray="4,3" />
  <text x="134.6" y="94.3" font-size="10" font-family="serif" text-anchor="start" fill="#7f8c8d">N</text>
  <circle cx="90.0" cy="123.2" r="3.0" fill="#222222"/>
  <text x="6.0" y="16.0" font-size="11" font-family="serif" text-anchor="start" fill="#222222">&#x3B1; = &#x3C0;  (X&#x2192;South)</text>
  <line x1="180.0" y1="4" x2="180.0" y2="216" stroke="#7f8c8d" stroke-width="0.6" stroke-dasharray="3,3"/>
  <polygon points="150.5,123.2 270.0,64.4 389.5,123.2 270.0,182.0" fill="#27ae60" fill-opacity="0.15" stroke="#27ae60" stroke-width="0.8" stroke-opacity="0.5"/>
  <line x1="270.0" y1="123.2" x2="335.5" y2="155.4" stroke="#1e8449" stroke-width="1.8" marker-end="url(#arr-gr)"/>
  <text x="347.5" y="171.4" font-size="13" font-family="serif" font-style="italic" fill="#1e8449">X</text>
  <line x1="270.0" y1="123.2" x2="335.5" y2="91.0" stroke="#1e8449" stroke-width="1.8" marker-end="url(#arr-gr)"/>
  <text x="329.5" y="81.0" font-size="13" font-family="serif" font-style="italic" fill="#1e8449">Y</text>
  <line x1="270.0" y1="123.2" x2="270.0" y2="64.3" stroke="#1e8449" stroke-width="1.8" marker-end="url(#arr-gr)"/>
  <text x="273.0" y="48.3" font-size="13" font-family="serif" font-style="italic" fill="#1e8449">Z</text>
  <line x1="270.0" y1="123.2" x2="320.6" y2="98.3" stroke="#7f8c8d" stroke-width="0.9" stroke-dasharray="4,3" />
  <text x="314.6" y="94.3" font-size="10" font-family="serif" text-anchor="start" fill="#7f8c8d">N</text>
  <circle cx="270.0" cy="123.2" r="3.0" fill="#222222"/>
  <text x="186.0" y="16.0" font-size="11" font-family="serif" text-anchor="start" fill="#222222">&#x3B1; = &#x3C0;/2 (X&#x2192;East)</text>
  <line x1="360.0" y1="4" x2="360.0" y2="216" stroke="#7f8c8d" stroke-width="0.6" stroke-dasharray="3,3"/>
  <polygon points="365.5,81.6 534.5,81.6 534.5,164.8 365.5,164.8" fill="#27ae60" fill-opacity="0.15" stroke="#27ae60" stroke-width="0.8" stroke-opacity="0.5"/>
  <line x1="450.0" y1="123.2" x2="450.0" y2="165.4" stroke="#1e8449" stroke-width="1.8" marker-end="url(#arr-gr)"/>
  <text x="454.0" y="186.4" font-size="13" font-family="serif" font-style="italic" fill="#1e8449">X</text>
  <line x1="450.0" y1="123.2" x2="545.0" y2="123.2" stroke="#1e8449" stroke-width="1.8" marker-end="url(#arr-gr)"/>
  <text x="540.0" y="117.2" font-size="13" font-family="serif" font-style="italic" fill="#1e8449">Y</text>
  <line x1="450.0" y1="123.2" x2="450.0" y2="64.3" stroke="#1e8449" stroke-width="1.8" marker-end="url(#arr-gr)"/>
  <text x="453.0" y="48.3" font-size="13" font-family="serif" font-style="italic" fill="#1e8449">Z</text>
  <line x1="450.0" y1="123.2" x2="500.6" y2="98.3" stroke="#7f8c8d" stroke-width="0.9" stroke-dasharray="4,3" />
  <text x="494.6" y="94.3" font-size="10" font-family="serif" text-anchor="start" fill="#7f8c8d">N</text>
  <circle cx="450.0" cy="123.2" r="3.0" fill="#222222"/>
  <text x="366.0" y="16.0" font-size="11" font-family="serif" text-anchor="start" fill="#222222">&#x3B1; = 3&#x3C0;/4 (X&#x2192;SE)</text>
</svg>
